<?xml version="1.0" standalone="no"?>
<!DOCTYPE svg PUBLIC "-//W3C//DTD SVG 20010904//EN"
 "http://www.w3.org/TR/2001/REC-SVG-20010904/DTD/svg10.dtd">
<svg version="1.0" xmlns="http://www.w3.org/2000/svg"
 width="512.000000pt" height="512.000000pt" viewBox="0 0 512.000000 512.000000"
 preserveAspectRatio="xMidYMid meet">

<g transform="translate(0.000000,512.000000) scale(0.100000,-0.100000)"
fill="#D5C9BE" stroke="none">
<path d="M2460 4107 c-379 -331 -623 -869 -647 -1432 -19 -460 137 -900 447
-1261 67 -78 282 -274 300 -274 4 0 54 40 111 89 299 254 515 613 598 996 129
593 -74 1324 -490 1770 -54 57 -210 196 -220 195 -2 -1 -47 -38 -99 -83z"/>
<path d="M1068 3883 c-176 -352 -240 -701 -193 -1056 75 -575 416 -1076 921
-1354 l69 -37 -23 34 c-154 237 -263 525 -309 815 -24 152 -24 505 0 665 36
239 112 490 203 672 24 48 44 92 44 97 0 17 -154 112 -285 176 -98 49 -323
135 -351 135 -1 0 -36 -66 -76 -147z"/>
<path d="M3855 3992 c-60 -21 -158 -61 -217 -89 -112 -54 -298 -169 -298 -184
0 -5 16 -41 36 -81 102 -203 178 -457 216 -723 17 -120 16 -484 -1 -605 -43
-301 -153 -594 -317 -845 l-19 -29 70 38 c500 273 845 780 920 1353 34 261 7
526 -80 791 -33 101 -180 412 -194 412 -3 -1 -55 -18 -116 -38z"/>
<path d="M530 2508 c-139 -29 -331 -98 -471 -169 l-58 -29 21 -72 c24 -87 86
-246 128 -329 370 -731 1210 -1119 2010 -926 l55 14 -45 12 c-284 74 -554 201
-770 362 -101 76 -279 246 -362 346 -152 187 -292 442 -368 672 -49 146 -41
140 -140 119z"/>
<path d="M4451 2392 c-178 -541 -570 -986 -1086 -1233 -108 -52 -294 -119
-415 -150 l-45 -12 30 -9 c61 -18 253 -46 355 -53 195 -13 468 27 669 96 119
41 309 136 411 204 360 242 603 580 734 1023 l15 54 -112 53 c-128 60 -264
108 -387 136 -133 29 -120 38 -169 -109z"/>
</g>
</svg>
